<?xml version="1.0" encoding="UTF-8"?>
<svg id="Layer_1" data-name="Layer 1" xmlns="http://www.w3.org/2000/svg" viewBox="0 0 1345.8 61.4">
  <defs>
    <style>
      .cls-1, .cls-2, .cls-3 {
        stroke-width: 0px;
      }

      .cls-2 {
        fill: #101717;
      }

      .cls-3 {
        fill: #fff;
      }
    </style>
  </defs>
  <g>
    <path class="cls-3" d="m1125.3,61.45H220.5c0-20.49,0-40.97,0-61.46,301.6,0,603.2,0,904.8,0v61.46Zm-213.87-29.04h213.53v-1.79c-.65,0-1.21,0-1.76,0-70.12,0-140.23,0-210.35,0-.28,0-.56-.02-.84,0-.74.08-1.15-.16-1.36-.95-.18-.69-.57-1.34-.95-1.97-2.55-4.29-6.76-6.19-11.33-7.06-4.88-.93-9.77-.53-14.58,1.09-3.01,1.01-5.95,2.07-8.72,3.61-3.71,2.06-7.4,4.17-11.09,6.27-2.22,1.26-4.35,2.7-6.65,3.78-2.72,1.28-5.52,2.49-8.4,3.29-3.98,1.11-8.06,1.96-12.14,2.62-2.75.45-5.58.5-8.37.52-6.74.06-13.49.24-20.18-.89-2.42-.41-4.88-.58-7.31-.96-3.52-.55-7.05-1.1-10.53-1.81-3.19-.65-6.35-1.49-9.51-2.3-2.01-.51-4-1.07-5.99-1.66-3.35-.98-6.69-1.97-10.02-3.01-1.83-.57-3.65-1.2-5.44-1.91-2.51-1-4.98-2.08-7.45-3.16-.85-.37-1.67-.81-2.51-1.22,2.84-1.08,5.53-1.94,8.25-2.66,2.4-.64,4.83-1.2,7.28-1.66,3.27-.62,6.55-1.22,9.84-1.65,3.32-.44,6.65-.78,9.99-.95,4.7-.25,9.41-.18,14.08.53,1.22.19,2.51.12,3.68.45,3.03.85,6.06,1.76,9.02,2.85,2.29.85,4.51,1.91,6.66,3.06,2.93,1.58,5.77,3.35,8.65,5.03,3.83,2.24,7.91,3.76,12.37,4.15,4.25.37,8.26-.23,11.81-2.79,1.44-1.04,2.62-2.34,3.17-4.02.63-1.91.8-3.85.21-5.9-.88-3.06-3.81-5.34-6.72-5.83-2.19-.37-4.19.15-6.07,1.35-2.46,1.56-4.09,5.45-1.72,8.32,1.24,1.51,4.34,2.02,5.62.25,1.06-1.47,1.57-3.13-.89-4.88-.07.39-.1.82.09,1.09.66.95.57,1.97.05,2.81-.3.48-1.19.91-1.76.85-2.11-.22-3.77-2.49-2.71-4.51,2.27-4.34,6.98-4.84,10.38-1.89,2.82,2.45,3.03,7.2-.18,10.02-2.88,2.53-6.38,3.04-10.01,3.01-1.17,0-2.34-.4-3.51-.61-.51-.09-1.06-.1-1.52-.3-2.14-.92-4.3-1.8-6.37-2.88-2.42-1.26-4.74-2.73-7.12-4.08-2.15-1.22-4.26-2.54-6.51-3.57-2.41-1.1-4.9-2.08-7.44-2.82-2.94-.87-5.93-1.75-8.96-2.06-7.68-.79-15.38-.87-23.04.38-3.44.56-6.89,1.06-10.31,1.7-2.83.53-5.66,1.11-8.43,1.86-3.52.95-7.01,2.01-10.45,3.2-2.15.74-3.75-.56-5.51-1.15-2.12-.72-4.08-1.88-6.17-2.72-2.62-1.05-5.29-2.01-7.96-2.92-3.15-1.07-6.3-2.14-9.51-3.02-2.54-.7-5.14-1.32-7.75-1.61-5.37-.61-10.81-1.23-15.87,1.51-1.59.86-3.38,1.64-4.54,2.93-3.05,3.39-3.87,7.41-2.39,11.82.1.29.03.71-.11,1-.99,2.05-.82,7.02,1.68,8.96.73.57,1.47,1.11,2.2,1.68,1.62,1.25,3.57,1.89,5.49,2.05,2.38.2,4.82-.1,7.21-.38,2.28-.27,4.53-.75,6.78-1.22,1.34-.28,2.68-.65,3.97-1.11,2.72-.97,5.41-2.01,8.1-3.04,1.63-.63,3.26-1.27,4.87-1.96,3.03-1.31,6.03-2.68,9.05-3.99,1.79-.78,3.59-1.54,5.41-2.24.85-.33,1.94-.91,2.63-.64,3.3,1.32,6.47,2.98,9.75,4.34,3.71,1.54,7.48,2.96,11.27,4.29,3.47,1.22,6.99,2.33,10.53,3.35,3.41.98,6.86,1.82,10.31,2.64,2.64.63,5.3,1.19,7.97,1.67,3.43.62,6.88,1.2,10.34,1.66,3.16.42,6.33.83,9.51.93,6.66.22,13.31.44,19.97-.28,4.28-.46,8.52-1.06,12.63-2.22,3.64-1.02,7.22-2.35,10.67-3.91,3.56-1.6,6.96-3.59,10.38-5.5,3.46-1.93,6.87-3.96,10.29-5.96,4.15-2.43,8.7-3.73,13.4-4.45,3.74-.58,7.35.33,10.83,1.65,1.06.4,2.07,1.08,2.9,1.86,1.29,1.21,2.43,2.52,3.05,4.31.67,1.94.65,3.74.03,5.62-.81,2.43-2.18,4.41-4.71,5.25-1.46.49-3.06,1.05-4.53.92-1.81-.16-3.63-.74-5.06-2.16-2.08-2.07-3.53-5.27-.41-8.01.93-.82,3.47-.92,4.13-.12,1.09,1.32,1.15,2.84.27,4.34-.24.42-.24.98-.35,1.47.21.08.42.17.64.25.49-.78.96-1.57,1.47-2.34.68-1.03.28-1.99-.02-3.03-.48-1.66-1.71-2.9-3.43-2.86-1.17.03-2.39.36-3.46.84-1.49.67-2.37,2.03-2.7,3.59-1.07,5,2.66,8.61,6.53,9.81,3.56,1.11,7.15.58,10.2-1.61,2.84-2.04,4.39-4.99,4.57-8.55.03-.63,0-1.26,0-2.11Zm-463.99,6.11c.77-.84.05-1.42-.36-2.05-1.05-1.58.19-4.21,2.06-4.42,1.88-.21,3.12.81,3.95,2.25.72,1.24.63,2.66.03,4-.83,1.86-2.22,3.23-4.07,3.91-1.38.51-2.94.75-4.41.68-1.15-.05-2.28-.73-3.4-1.18-2.7-1.08-3.96-3.37-4.48-5.96-.85-4.22.96-7.31,4.51-9.69,2.9-1.94,6.1-2.62,9.44-2.84,1.44-.1,2.91.26,4.36.39,3.89.35,7.49,1.72,10.92,3.45,3.45,1.74,6.8,3.67,10.15,5.58,3.07,1.76,5.99,3.82,9.16,5.38,3.36,1.65,6.88,3.04,10.44,4.23,3.09,1.03,6.3,1.75,9.51,2.38,2.57.51,5.2.86,7.82.96,6.62.26,13.23.41,19.86-.29,4.58-.48,9.18-.78,13.7-1.75,2.93-.63,5.89-1.09,8.82-1.69,2.94-.6,5.88-1.22,8.79-1.96,2.73-.69,5.43-1.52,8.13-2.34,3-.91,5.99-1.85,8.97-2.83,1.67-.55,3.33-1.14,4.97-1.8,2.63-1.06,5.25-2.17,7.86-3.29,1.71-.73,3.38-1.54,5.09-2.28.74-.32,1.59-.91,2.26-.76,1.52.34,2.97,1.01,4.42,1.62,3.26,1.38,6.49,2.82,9.74,4.21,1.47.63,2.96,1.19,4.43,1.8,2.25.95,4.45,2.02,6.74,2.86,2.25.82,4.55,1.51,6.87,2.1,3.08.79,6.18,1.57,9.31,2.09,3.65.6,7.23.24,10.6-1.53,1.5-.79,2.93-1.71,3.84-3.09,1.51-2.29,1.72-4.92,1-7.54-.23-.83-.18-1.44-.03-2.27.84-4.58.3-8.76-3.78-11.9-2.61-2.01-5.49-3.35-8.65-3.86-4.81-.77-9.62-.06-14.35.92-3.15.65-6.25,1.56-9.35,2.44-1.92.55-3.82,1.2-5.69,1.9-2.71,1.02-5.39,2.1-8.06,3.2-1.54.64-2.99,1.52-4.57,2.04-2.03.67-3.81,1.86-6.36.78-3.74-1.57-7.77-2.5-11.74-3.47-3.46-.85-6.99-1.4-10.49-2.04-2.53-.46-5.05-.96-7.6-1.26-2.3-.27-4.63-.33-6.94-.41-6.73-.22-13.43-.21-20.06,1.46-3.1.78-6.14,1.65-9.05,2.92-2.02.88-3.95,1.97-5.88,3.05-1.91,1.08-3.72,2.34-5.65,3.38-2.56,1.37-5.23,2.54-7.78,3.92-2.51,1.35-5.27,1.72-7.99,1.98-2.62.25-5.3-.26-7.66-1.58-2.31-1.3-4.08-3.03-4.28-5.97-.26-4.01,2.82-7.15,6.65-7.23,1.67-.04,3.17.52,4.29,1.6,1.41,1.35,2.63,3.05,1.08,5.29-.98,1.42-2.84,1.8-3.93.68-.74-.76-.59-2.37.35-3.66-.18-.19-.35-.37-.53-.56-.27.23-.48.39-.66.58-1.46,1.46-.99,4.47.91,5.18,2.39.91,5.03-.21,5.66-2.97.65-2.82-.42-4.73-3.21-6.63-3.7-2.53-9.19-.9-11.3,2.68-1.22,2.07-1.64,4.23-1.11,6.65.48,2.23,1.66,3.9,3.42,5.21,2.95,2.2,6.31,3.06,9.97,2.98,2.99-.06,5.91-.45,8.65-1.68,2.45-1.1,4.91-2.17,7.27-3.43,2.46-1.31,4.77-2.92,7.23-4.22,2.19-1.16,4.46-2.21,6.78-3.07,2.92-1.08,5.87-2.19,8.91-2.78,3.38-.66,6.87-.92,10.33-1.02,3.21-.09,6.44.25,9.66.39,4.41.2,8.78.67,13.1,1.65,4.27.98,8.58,1.77,12.85,2.73,2.34.53,4.63,1.23,7.28,1.94-.6.36-.89.57-1.22.72-1.1.49-2.22.95-3.33,1.42-2.09.88-4.15,1.82-6.27,2.62-2.09.79-4.23,1.45-6.36,2.14-3.19,1.04-6.37,2.1-9.57,3.09-1.91.59-3.84,1.13-5.78,1.6-3.6.86-7.21,1.71-10.84,2.44-3.14.64-6.3,1.18-9.47,1.64-2.99.43-6,.73-9,1.02-1.91.18-3.83.28-5.75.35-8.27.32-16.54.42-24.7-1.19-3.15-.62-6.22-1.62-9.31-2.49-1.1-.31-2.19-.69-3.22-1.16-2.05-.94-4.07-1.92-6.07-2.96-1.8-.93-3.57-1.91-5.31-2.94-2.51-1.48-4.93-3.13-7.5-4.5-2.67-1.41-5.44-2.68-8.25-3.81-2.13-.86-4.35-1.7-6.61-2.03-4.05-.58-8.14-.89-12.18.37-2.17.68-4.28,1.44-6.14,2.77-1.95,1.4-3.67,3.07-4.42,5.4-.36,1.12-.83,1.44-1.99,1.44-70.2-.03-140.39-.03-210.59-.03h-1.46v1.86h212.76c.37,1.85.63,3.55,1.05,5.2.97,3.74,3.72,5.95,7.16,6.98,3.81,1.13,7.54.62,10.73-2.16,3.63-3.16,4.18-9.34-.62-11.57-2.07-.96-4.67-.59-5.78,1.15-1.44,2.26-1.11,5.45,1.31,6.44Zm225.34-15.63c-.13-.2-.2-.3-.25-.4-1.45-3-4.28-4.15-7.5-3.04-2.75.94-4.3,3.83-3.71,6.81.6,2.98,2.65,4.91,4.83,6.75,2.2,1.86,4.42,3.71,6.55,5.49,1.16-1.01,2.45-2.18,3.79-3.29,1.04-.87,2.17-1.63,3.21-2.49,1.7-1.41,3.26-2.94,4.1-5.05,1.44-3.59-.35-7.45-3.86-8.28-2.5-.59-5.42-.29-7.17,3.5Z"/>
    <path class="cls-1" d="m911.43,32.4c0,.85.03,1.48,0,2.11-.17,3.56-1.72,6.51-4.57,8.55-3.05,2.19-6.64,2.72-10.2,1.61-3.87-1.2-7.61-4.82-6.53-9.81.34-1.56,1.21-2.92,2.7-3.59,1.07-.48,2.29-.81,3.46-.84,1.72-.05,2.94,1.2,3.43,2.86.3,1.03.7,2,.02,3.03-.51.77-.98,1.56-1.47,2.34-.21-.08-.42-.17-.64-.25.11-.49.11-1.06.35-1.47.88-1.5.82-3.01-.27-4.34-.66-.8-3.2-.71-4.13.12-3.11,2.74-1.67,5.95.41,8.01,1.43,1.42,3.26,2,5.06,2.16,1.48.13,3.07-.44,4.53-.92,2.52-.84,3.9-2.82,4.71-5.25.62-1.88.64-3.69-.03-5.62-.62-1.79-1.76-3.1-3.05-4.31-.83-.78-1.84-1.46-2.9-1.86-3.48-1.32-7.09-2.23-10.83-1.65-4.7.72-9.25,2.03-13.4,4.45-3.42,2-6.83,4.03-10.29,5.96-3.42,1.91-6.81,3.89-10.38,5.5-3.45,1.55-7.03,2.88-10.67,3.91-4.11,1.16-8.35,1.76-12.63,2.22-6.67.72-13.32.5-19.97.28-3.18-.1-6.36-.51-9.51-.93-3.46-.46-6.9-1.04-10.34-1.66-2.67-.48-5.33-1.04-7.97-1.67-3.45-.82-6.9-1.66-10.31-2.64-3.54-1.02-7.06-2.13-10.53-3.35-3.79-1.33-7.56-2.75-11.27-4.29-3.29-1.36-6.45-3.03-9.75-4.34-.68-.27-1.78.31-2.63.64-1.82.7-3.62,1.46-5.41,2.24-3.02,1.32-6.02,2.68-9.05,3.99-1.6.69-3.23,1.34-4.87,1.96-2.69,1.03-5.38,2.07-8.1,3.04-1.29.46-2.63.83-3.97,1.11-2.25.47-4.5.95-6.78,1.22-2.39.28-4.83.58-7.21.38-1.92-.16-3.87-.8-5.49-2.05-.73-.57-1.47-1.11-2.2-1.68-2.49-1.94-2.66-6.91-1.68-8.96.14-.29.21-.71.11-1-1.48-4.4-.66-8.43,2.39-11.82,1.16-1.29,2.95-2.07,4.54-2.93,5.06-2.74,10.5-2.11,15.87-1.51,2.61.29,5.21.92,7.75,1.61,3.2.88,6.36,1.95,9.51,3.02,2.68.91,5.34,1.87,7.96,2.92,2.09.83,4.05,2,6.17,2.72,1.76.59,3.36,1.89,5.51,1.15,3.44-1.19,6.93-2.25,10.45-3.2,2.78-.75,5.6-1.34,8.43-1.86,3.42-.64,6.87-1.14,10.31-1.7,7.66-1.25,15.36-1.16,23.04-.38,3.03.31,6.03,1.19,8.96,2.06,2.54.75,5.04,1.72,7.44,2.82,2.24,1.03,4.36,2.35,6.51,3.57,2.38,1.35,4.7,2.81,7.12,4.08,2.06,1.08,4.23,1.96,6.37,2.88.46.2,1.01.21,1.52.3,1.17.22,2.34.6,3.51.61,3.63.03,7.14-.48,10.01-3.01,3.21-2.82,3-7.57.18-10.02-3.4-2.95-8.11-2.46-10.38,1.89-1.06,2.02.6,4.3,2.71,4.51.57.06,1.46-.37,1.76-.85.53-.83.62-1.86-.05-2.81-.19-.28-.16-.71-.09-1.09,2.47,1.75,1.96,3.4.89,4.88-1.28,1.77-4.38,1.26-5.62-.25-2.37-2.87-.74-6.76,1.72-8.32,1.88-1.19,3.88-1.71,6.07-1.35,2.91.49,5.85,2.76,6.72,5.83.59,2.05.41,3.99-.21,5.9-.55,1.68-1.72,2.98-3.17,4.02-3.55,2.56-7.56,3.16-11.81,2.79-4.46-.39-8.53-1.91-12.37-4.15-2.88-1.68-5.71-3.45-8.65-5.03-2.15-1.16-4.37-2.22-6.66-3.06-2.95-1.09-5.98-2-9.02-2.85-1.18-.33-2.46-.27-3.68-.45-4.68-.72-9.38-.78-14.08-.53-3.34.17-6.68.51-9.99.95-3.3.43-6.57,1.03-9.84,1.65-2.44.47-4.87,1.03-7.28,1.66-2.73.72-5.42,1.58-8.25,2.66.83.41,1.65.85,2.51,1.22,2.48,1.07,4.95,2.16,7.45,3.16,1.78.71,3.6,1.34,5.44,1.91,3.33,1.04,6.68,2.03,10.02,3.01,1.99.58,3.98,1.15,5.99,1.66,3.16.8,6.32,1.65,9.51,2.3,3.49.71,7.01,1.26,10.53,1.81,2.43.38,4.89.55,7.31.96,6.69,1.12,13.44.95,20.18.89,2.79-.03,5.62-.08,8.37-.52,4.08-.67,8.16-1.52,12.14-2.62,2.89-.8,5.68-2.02,8.4-3.29,2.3-1.08,4.43-2.52,6.65-3.78,3.69-2.1,7.38-4.21,11.09-6.27,2.76-1.53,5.71-2.6,8.72-3.61,4.81-1.62,9.7-2.02,14.58-1.09,4.57.88,8.77,2.77,11.33,7.06.37.63.77,1.28.95,1.97.21.79.62,1.03,1.36.95.28-.03.56,0,.84,0,70.12,0,140.23,0,210.35,0,.56,0,1.11,0,1.76,0v1.79h-213.53Zm-171.03-7.47c-1.01-.46-1.7-.8-2.41-1.1-1.75-.73-3.5-1.43-5.25-2.16-2.28-.95-4.52-2-6.83-2.86-2.17-.81-4.39-1.5-6.63-2.1-3.75-1.01-7.48-2.13-11.3-2.78-4.44-.75-8.95-.89-13.12,1.38-1.48.81-2.95,1.57-4.17,2.88-1.43,1.54-1.59,3.43-2.1,5.24-.18.64.12,1.42.22,2.32,4.64-3.58,11.06-1.36,12.23,2.49-.5-.16-1.04-.35-1.34-.73-2.24-2.72-6.77-2.94-9.41-1.05-.46.33-1.3.76-.83,1.57.52.9,1.1,1.83,1.85,2.52,1.85,1.7,4.16,2.1,6.6,1.92,2.92-.22,5.32-1.35,6.95-3.9.15-.24.7-.23,1.06-.33.02.43.24,1,.04,1.25-1.94,2.5-4.35,4.35-7.64,4.62-2.74.23-5.46.16-7.72-1.78-.74-.64-1.48-1.26-2.38-2.03-.03,1.6-.15,2.96.56,4.32,1.34,2.57,3.7,3.7,6.25,4.29,4.51,1.04,8.95.02,13.35-.99,1.15-.26,2.31-.53,3.41-.95,3.28-1.24,6.54-2.55,9.8-3.85,1.67-.66,3.33-1.34,4.97-2.06,3.69-1.62,7.37-3.27,11.05-4.91.84-.37,1.67-.74,2.77-1.23Z"/>
    <path class="cls-1" d="m447.43,38.51c-2.42-.99-2.75-4.18-1.31-6.44,1.11-1.74,3.71-2.11,5.78-1.15,4.8,2.23,4.25,8.4.62,11.57-3.2,2.78-6.93,3.3-10.73,2.16-3.45-1.03-6.19-3.24-7.16-6.98-.43-1.65-.68-3.35-1.05-5.2h-212.76v-1.86h1.46c70.2,0,140.39,0,210.59.03,1.17,0,1.63-.33,1.99-1.44.75-2.33,2.47-4,4.42-5.4,1.85-1.33,3.96-2.1,6.14-2.77,4.04-1.26,8.13-.95,12.18-.37,2.26.32,4.47,1.17,6.61,2.03,2.81,1.13,5.58,2.39,8.25,3.81,2.57,1.36,4.99,3.02,7.5,4.5,1.74,1.03,3.51,2.01,5.31,2.94,2,1.03,4.02,2.02,6.07,2.96,1.03.47,2.12.85,3.22,1.16,3.09.87,6.17,1.87,9.31,2.49,8.16,1.61,16.43,1.51,24.7,1.19,1.92-.07,3.84-.17,5.75-.35,3.01-.29,6.01-.59,9-1.02,3.17-.46,6.33-1,9.47-1.64,3.63-.74,7.24-1.58,10.84-2.44,1.94-.46,3.87-1.01,5.78-1.6,3.2-.99,6.39-2.05,9.57-3.09,2.13-.7,4.27-1.35,6.36-2.14,2.12-.8,4.18-1.74,6.27-2.62,1.11-.47,2.23-.93,3.33-1.42.33-.14.62-.36,1.22-.72-2.65-.71-4.95-1.42-7.28-1.94-4.27-.96-8.58-1.76-12.85-2.73-4.32-.99-8.69-1.46-13.1-1.65-3.22-.14-6.45-.49-9.66-.39-3.45.1-6.94.36-10.33,1.02-3.04.59-5.99,1.7-8.91,2.78-2.32.86-4.59,1.91-6.78,3.07-2.47,1.3-4.77,2.91-7.23,4.22-2.36,1.26-4.83,2.33-7.27,3.43-2.75,1.23-5.66,1.62-8.65,1.68-3.66.07-7.02-.79-9.97-2.98-1.76-1.31-2.93-2.98-3.42-5.21-.52-2.42-.11-4.58,1.11-6.65,2.12-3.57,7.6-5.21,11.3-2.68,2.78,1.9,3.86,3.81,3.21,6.63-.63,2.77-3.27,3.88-5.66,2.97-1.89-.72-2.37-3.72-.91-5.18.19-.19.4-.35.66-.58.17.18.35.37.53.56-.93,1.29-1.09,2.91-.35,3.66,1.09,1.12,2.95.74,3.93-.68,1.55-2.24.32-3.94-1.08-5.29-1.12-1.08-2.62-1.64-4.29-1.6-3.83.08-6.92,3.21-6.65,7.23.19,2.93,1.96,4.67,4.28,5.97,2.36,1.33,5.03,1.83,7.66,1.58,2.71-.26,5.48-.63,7.99-1.98,2.56-1.38,5.23-2.54,7.78-3.92,1.93-1.04,3.74-2.3,5.65-3.38,1.92-1.08,3.86-2.17,5.88-3.05,2.91-1.27,5.95-2.15,9.05-2.92,6.63-1.66,13.32-1.67,20.06-1.46,2.32.07,4.64.14,6.94.41,2.55.3,5.08.79,7.6,1.26,3.51.64,7.04,1.2,10.49,2.04,3.97.97,8,1.89,11.74,3.47,2.55,1.08,4.33-.12,6.36-.78,1.58-.52,3.03-1.4,4.57-2.04,2.67-1.11,5.35-2.18,8.06-3.2,1.87-.7,3.77-1.35,5.69-1.9,3.1-.88,6.2-1.79,9.35-2.44,4.73-.97,9.54-1.68,14.35-.92,3.16.5,6.04,1.85,8.65,3.86,4.08,3.15,4.62,7.32,3.78,11.9-.15.83-.2,1.44.03,2.27.72,2.61.51,5.24-1,7.54-.91,1.38-2.35,2.3-3.84,3.09-3.36,1.77-6.95,2.13-10.6,1.53-3.13-.51-6.23-1.3-9.31-2.09-2.32-.59-4.63-1.28-6.87-2.1-2.29-.84-4.49-1.91-6.74-2.86-1.47-.62-2.96-1.18-4.43-1.8-3.25-1.39-6.49-2.83-9.74-4.21-1.45-.61-2.9-1.28-4.42-1.62-.67-.15-1.52.44-2.26.76-1.7.74-3.38,1.54-5.09,2.28-2.61,1.12-5.22,2.23-7.86,3.29-1.63.66-3.29,1.25-4.97,1.8-2.98.98-5.97,1.92-8.97,2.83-2.7.82-5.4,1.65-8.13,2.34-2.91.74-5.85,1.35-8.79,1.96-2.93.6-5.9,1.05-8.82,1.69-4.52.98-9.12,1.27-13.7,1.75-6.63.7-13.24.55-19.86.29-2.62-.1-5.25-.45-7.82-.96-3.2-.63-6.42-1.35-9.51-2.38-3.56-1.19-7.08-2.58-10.44-4.23-3.17-1.56-6.09-3.62-9.16-5.38-3.35-1.92-6.7-3.85-10.15-5.58-3.43-1.73-7.03-3.09-10.92-3.45-1.46-.13-2.92-.48-4.36-.39-3.34.22-6.54.91-9.44,2.84-3.55,2.37-5.37,5.46-4.51,9.69.52,2.59,1.78,4.88,4.48,5.96,1.12.45,2.25,1.13,3.4,1.18,1.46.07,3.03-.18,4.41-.68,1.85-.68,3.25-2.06,4.07-3.91.6-1.34.69-2.76-.03-4-.83-1.44-2.07-2.45-3.95-2.25-1.87.2-3.12,2.83-2.06,4.42.42.63,1.13,1.21.36,2.05Zm157.7-13.75c.16.24.21.43.33.48,2.22.93,4.46,1.83,6.68,2.76,1.55.65,3.11,1.3,4.64,1.99,2.82,1.27,5.61,2.62,8.45,3.82,1.88.8,3.89,1.3,5.76,2.11,3.3,1.42,6.76,2.36,10.27,2.9,4.23.65,8.48,1.15,12.49-1.34,2.33-1.45,3.95-4.09,3.16-7.1-.22.2-.42.35-.59.53-1.42,1.56-3.07,2.7-5.2,3.07-3.34.57-6.5.2-9.25-1.89-.99-.75-1.81-1.76-2.61-2.73-.16-.2.09-.74.15-1.12.35.12.8.14,1.05.37.79.77,1.37,1.84,2.28,2.4,3.54,2.17,9.24,2.36,12.32-1.55,1.04-1.32,1.15-2.21.11-2.87-.91-.58-1.98-1.05-3.03-1.23-2.67-.45-5,.32-6.84,2.4-.24.27-.66.38-1,.56l-.19-.33c.98-2.3,3.02-3.35,5.23-3.93,2.48-.65,4.84,0,7.16,1.65.1-.78.34-1.4.24-1.96-.5-2.74-1.13-5.34-3.83-7-2.78-1.71-5.63-3.04-8.93-3.18-3.87-.15-7.66.35-11.39,1.43-2.53.73-5.12,1.24-7.65,1.95-2.08.59-4.14,1.25-6.15,2.02-2.27.87-4.47,1.9-6.71,2.85-2.29.98-4.59,1.94-6.96,2.95Z"/>
    <path class="cls-1" d="m672.77,22.88c1.75-3.78,4.68-4.09,7.17-3.5,3.51.83,5.3,4.68,3.86,8.28-.84,2.11-2.4,3.64-4.1,5.05-1.04.86-2.17,1.63-3.21,2.49-1.34,1.11-2.63,2.28-3.79,3.29-2.13-1.78-4.35-3.63-6.55-5.49-2.18-1.84-4.23-3.78-4.83-6.75-.6-2.97.96-5.87,3.71-6.81,3.22-1.1,6.05.05,7.5,3.04.05.11.12.2.25.4Z"/>
    <path class="cls-3" d="m740.39,24.93c-1.1.49-1.94.86-2.77,1.23-3.68,1.64-7.36,3.29-11.05,4.91-1.64.72-3.3,1.39-4.97,2.06-3.26,1.3-6.52,2.61-9.8,3.85-1.1.42-2.26.69-3.41.95-4.4,1-8.84,2.02-13.35.99-2.56-.59-4.92-1.73-6.25-4.29-.71-1.36-.59-2.72-.56-4.32.9.76,1.64,1.39,2.38,2.03,2.26,1.95,4.98,2.01,7.72,1.78,3.29-.28,5.69-2.12,7.64-4.62.2-.25-.02-.83-.04-1.25-.36.1-.91.09-1.06.33-1.63,2.55-4.02,3.68-6.95,3.9-2.44.18-4.75-.22-6.6-1.92-.76-.69-1.33-1.62-1.85-2.52-.47-.81.37-1.25.83-1.57,2.64-1.89,7.17-1.67,9.41,1.05.31.37.84.57,1.34.73-1.17-3.84-7.59-6.07-12.23-2.49-.1-.91-.4-1.68-.22-2.32.5-1.8.66-3.7,2.1-5.24,1.22-1.31,2.68-2.07,4.17-2.88,4.17-2.27,8.68-2.13,13.12-1.38,3.81.65,7.55,1.77,11.3,2.78,2.24.6,4.46,1.29,6.63,2.1,2.31.86,4.55,1.91,6.83,2.86,1.75.73,3.5,1.43,5.25,2.16.71.3,1.4.64,2.41,1.1Z"/>
    <path class="cls-3" d="m605.13,24.76c2.37-1,4.67-1.97,6.96-2.95,2.24-.95,4.44-1.98,6.71-2.85,2.01-.77,4.08-1.43,6.15-2.02,2.53-.71,5.12-1.22,7.65-1.95,3.73-1.08,7.52-1.58,11.39-1.43,3.3.13,6.15,1.47,8.93,3.18,2.7,1.66,3.34,4.26,3.83,7,.1.56-.13,1.19-.24,1.96-2.32-1.65-4.68-2.3-7.16-1.65-2.22.58-4.26,1.64-5.23,3.93l.19.33c.34-.18.76-.29,1-.56,1.84-2.08,4.17-2.85,6.84-2.4,1.06.18,2.12.65,3.03,1.23,1.05.66.93,1.55-.11,2.87-3.09,3.92-8.78,3.73-12.32,1.55-.91-.56-1.49-1.63-2.28-2.4-.24-.23-.69-.26-1.05-.37-.06.38-.32.92-.15,1.12.8.97,1.61,1.98,2.61,2.73,2.75,2.09,5.91,2.47,9.25,1.89,2.13-.37,3.79-1.51,5.2-3.07.17-.18.37-.33.59-.53.79,3.01-.82,5.65-3.16,7.1-4.01,2.49-8.26,1.99-12.49,1.34-3.52-.54-6.97-1.47-10.27-2.9-1.88-.81-3.88-1.31-5.76-2.11-2.85-1.21-5.63-2.56-8.45-3.82-1.53-.69-3.09-1.34-4.64-1.99-2.22-.93-4.46-1.83-6.68-2.76-.11-.05-.17-.24-.33-.48Z"/>
  </g>
  <rect class="cls-2" y="30.7" width="435.3" height="1.9"/>
  <rect class="cls-2" x="910.5" y="30.7" width="435.3" height="1.9"/>
</svg>