<?xml version="1.0" encoding="UTF-8"?>
<svg id="Layer_1" xmlns="http://www.w3.org/2000/svg" version="1.1" viewBox="0 0 448 512">
  <!-- Generator: Adobe Illustrator 29.7.1, SVG Export Plug-In . SVG Version: 2.1.1 Build 8)  -->
  <defs>
    <style>
      .st0 {
        fill: #b76e79;
      }
    </style>
  </defs>
  <path class="st0" d="M416,32H31.9C14.3,32,0,46.5,0,64.3v383.4c0,17.8,14.3,32.3,31.9,32.3h384.1c17.6,0,32-14.5,32-32.3V64.3c0-17.8-14.4-32.3-32-32.3ZM135.4,416h-66.4v-213.8h66.5v213.8h-.1ZM102.2,96c21.26,0,38.5,17.24,38.5,38.5s-17.24,38.5-38.5,38.5h0c-21.26,0-38.5-17.24-38.5-38.5s17.24-38.5,38.5-38.5h0ZM384.3,416h-66.4v-104c0-24.8-.5-56.7-34.5-56.7s-39.9,27-39.9,54.9v105.8h-66.4v-213.8h63.7v29.2h.9c8.9-16.8,30.6-34.5,62.9-34.5,67.2,0,79.7,44.3,79.7,101.9v117.2Z"/>
</svg>